<svg width="84" height="25" viewBox="0 0 84 25" fill="none" xmlns="http://www.w3.org/2000/svg">
<g clip-path="url(#clip0_11202_177)">
<path d="M15.2724 0.859894C15.6456 1.04525 16.0652 1.57755 16.347 1.8923C18.7639 4.59225 20.0317 8.03105 19.8074 11.6509C19.5904 15.1538 17.8604 18.2642 15.2639 20.563C14.7722 20.2269 14.3223 19.7485 13.929 19.3038C11.7232 16.8091 10.5141 13.3041 10.7248 9.97885C10.942 6.55047 12.6945 3.12 15.2724 0.859894Z" fill="#0D0B0A"/>
<path d="M25.5582 5.76266C25.5653 5.77479 25.5735 5.78644 25.5797 5.7991C25.7172 6.07921 25.757 6.52363 25.7919 6.83453C25.9736 8.45131 25.8232 10.0723 25.2546 11.6031C23.834 15.4276 20.5503 18.2428 16.9197 19.9117C16.8769 19.9112 16.9056 19.9146 16.8403 19.8766C17.0622 19.5137 17.3716 19.1893 17.6276 18.8483C18.0191 18.3158 18.3739 17.7576 18.6894 17.1774C19.8015 15.1309 20.3334 12.8803 20.3317 10.5592C20.3313 9.90003 20.3162 9.24156 20.1254 8.60535C20.4659 8.22747 20.8831 7.90897 21.2881 7.60251C22.5932 6.61483 23.9082 5.92747 25.5582 5.76266Z" fill="#0D0B0A"/>
<path d="M4.94035 5.77867C5.13628 5.78622 5.33396 5.81165 5.52774 5.84113C7.01914 6.06804 8.32405 6.86223 9.48911 7.78137C9.81427 8.0379 10.17 8.30539 10.4149 8.6425C9.79542 11.825 10.617 15.162 12.2626 17.9144C12.5254 18.3519 12.8093 18.7762 13.1134 19.1863C13.2585 19.3817 13.4313 19.559 13.5615 19.7641L13.5154 19.824C10.8021 18.6636 8.26028 16.6103 6.62513 14.1561C4.9097 11.5811 4.34247 8.80739 4.94035 5.77867Z" fill="#0D0B0A"/>
<path d="M28.2125 12.8808C28.6451 12.8291 29.6147 12.7746 29.9773 13.0055C29.9956 13.06 30.0011 13.0654 30.003 13.1317C30.0102 13.3855 29.8444 13.7654 29.7584 14.0022C29.183 15.6361 28.1978 17.0951 26.8972 18.2394C24.3513 20.4905 21.0513 21.2981 17.7185 21.0838C17.089 21.018 16.44 20.9742 15.835 20.7813C18.6273 19.9224 21.2835 18.1678 23.208 15.9766C23.6811 15.4378 24.0279 14.8123 24.4882 14.2706C25.3618 13.2422 26.9459 12.9704 28.2125 12.8808Z" fill="#0D0B0A"/>
<path d="M1.53684 12.966C2.8381 12.8126 4.6038 13.0269 5.67562 13.837C6.31285 14.3188 6.69686 15.2132 7.22352 15.8221C8.87045 17.7293 10.9332 19.2331 13.2528 20.2176C13.7467 20.4291 14.2552 20.6497 14.7775 20.7783L13.7335 20.9528C10.6933 21.3902 7.54279 20.847 4.94149 19.1557C3.17004 18.0036 1.92275 16.4238 1.18945 14.4533C1.0818 14.1644 0.920648 13.8507 0.8656 13.5496C0.833449 13.3738 0.861752 13.2578 0.96449 13.1087C1.12802 12.9884 1.34062 12.9899 1.53684 12.966Z" fill="#0D0B0A"/>
<path d="M54.6319 10.3387C55.6452 10.3303 56.7505 10.2396 57.7511 10.3856C58.3949 10.4795 59.0489 10.7098 59.4405 11.2615C59.7284 11.668 59.8226 12.2388 59.7335 12.7244C59.6243 13.3186 59.2475 13.6622 58.7706 13.9822C58.8851 14.0305 58.9979 14.083 59.1075 14.1414C59.5289 14.3694 59.8271 14.7646 59.9503 15.2254C60.1187 15.8551 59.9836 16.5037 59.67 17.0623C59.5994 17.1695 59.516 17.2642 59.4229 17.3524C58.4612 18.2643 56.353 18.0877 55.1104 18.076C54.8713 18.074 54.5563 18.0956 54.378 17.9139C54.3347 17.8228 54.3175 17.7627 54.3116 17.66C54.2298 16.3253 54.3043 14.9404 54.3038 13.6014C54.3033 12.6529 54.2084 11.4184 54.3321 10.5018C54.4276 10.3822 54.4882 10.383 54.6319 10.3387ZM58.0265 15.032C57.4898 14.6819 56.586 14.783 55.963 14.784L55.9649 16.5135C56.6552 16.5184 57.462 16.6249 58.0743 16.2547C58.2185 16.0423 58.3633 15.7263 58.3214 15.4617C58.2912 15.2695 58.1861 15.1362 58.0265 15.032ZM57.7706 11.9569C57.2586 11.6488 56.5398 11.7272 55.964 11.7303V13.3904C56.5817 13.3953 57.3187 13.4863 57.8585 13.1375C58.0036 12.9296 58.1438 12.6313 58.089 12.369C58.049 12.1764 57.9347 12.0555 57.7706 11.9569Z" fill="#0D0B0A"/>
<path d="M45.1848 12.136C45.3392 12.1232 45.4948 12.1312 45.6467 12.1604C46.1103 12.2533 46.3363 12.5945 46.5842 12.9583C46.5983 12.8311 46.6082 12.6938 46.6379 12.5696C46.6686 12.4401 46.7393 12.3604 46.8557 12.2981C47.0429 12.1985 47.4451 12.1921 47.6409 12.2649C47.7839 12.3182 47.9431 12.4423 47.9924 12.592C48.1381 13.0349 48.0816 17.3703 47.9973 17.9631C47.9417 18.3537 47.8205 18.739 47.6233 19.0813C47.3057 19.6337 46.7649 19.9938 46.1575 20.1585C45.3011 20.3898 44.3271 20.3161 43.5627 19.8557C43.2217 19.6506 43.062 19.3866 42.9719 19.0061C43.0007 18.8687 43.0347 18.7349 43.1526 18.6458C43.5354 18.3565 44.3625 18.8421 44.7873 18.9212C45.1532 18.9889 45.5478 18.9519 45.8518 18.7219C46.3531 18.3439 46.436 17.6449 46.5217 17.0686C46.1861 17.4272 45.8672 17.7159 45.3723 17.8372C44.8361 17.969 44.2486 17.8784 43.7873 17.5725C43.1799 17.1701 42.8412 16.4795 42.717 15.7786C42.5656 14.9252 42.6978 13.9043 43.2151 13.1897C43.7086 12.509 44.3873 12.2581 45.1848 12.136ZM45.2756 13.4426C44.8763 13.5931 44.6556 13.7781 44.4846 14.176C44.2737 14.6651 44.2678 15.374 44.4739 15.8645C44.5825 16.1232 44.8007 16.396 45.0754 16.4885C45.2566 16.5493 45.4758 16.5232 45.6623 16.51C45.9912 16.3926 46.1783 16.2539 46.3342 15.9348C46.5742 15.4443 46.5817 14.7528 46.3987 14.2405C46.2925 13.9429 46.0824 13.6504 45.7844 13.5217C45.6319 13.456 45.4403 13.4344 45.2756 13.4426Z" fill="#0D0B0A"/>
<path d="M78.3534 12.1822C78.7455 12.1302 79.1319 12.1478 79.5021 12.3012C80.0136 12.513 80.2791 12.8988 80.4817 13.3913C80.5855 13.1312 80.7 12.8691 80.8836 12.6538C81.174 12.3121 81.5544 12.1762 81.9948 12.1593C82.5019 12.1398 83.0217 12.2563 83.3939 12.6206C83.6384 12.8603 83.7885 13.1813 83.8703 13.5102C84.0881 14.386 83.9663 16.2679 83.9692 17.2578C83.9697 17.4093 83.9887 17.8881 83.8703 17.9778C83.6686 18.1297 82.9545 18.0961 82.7031 18.0606C82.5565 18.0401 82.4659 17.9612 82.4055 17.8282C82.3124 17.6236 82.3621 17.2582 82.365 17.0317C82.3748 16.2976 82.5555 14.2686 82.121 13.7333C82.0211 13.6105 81.8798 13.5335 81.7205 13.5223C81.4867 13.5058 81.1891 13.5866 81.0191 13.7532C80.4169 14.3432 80.6167 16.4408 80.6215 17.2656C80.623 17.4322 80.6289 17.6143 80.6084 17.7795C80.5991 17.8526 80.5738 17.9373 80.5071 17.9753C80.2503 18.1224 79.6258 18.1005 79.3428 18.0343C79.1952 17.9997 79.1323 17.95 79.0797 17.8068C78.9925 17.5695 79.0412 17.2183 79.0456 16.9674C79.0588 16.2318 79.2332 14.4026 78.8591 13.8512C78.7465 13.6855 78.5794 13.5847 78.3826 13.5525C78.159 13.516 77.9262 13.5457 77.744 13.6894C77.0118 14.2672 77.212 16.2922 77.2154 17.1292C77.2164 17.3303 77.2573 17.6182 77.2106 17.8063C77.1916 17.8847 77.1687 17.9325 77.1014 17.9768C76.8661 18.1312 76.228 18.0981 75.9464 18.0426C75.828 18.0192 75.7525 17.9466 75.7014 17.8394C75.6293 17.6869 75.6079 13.2861 75.6346 12.8501C75.642 12.7288 75.6673 12.5992 75.7228 12.4899C75.7944 12.3497 75.9143 12.2584 76.0614 12.2108C76.4097 12.0984 76.8442 12.2229 77.1521 12.3939C77.2261 12.6689 77.173 13.0289 77.1614 13.3158C77.1974 13.2427 77.2339 13.1696 77.2715 13.0975C77.5433 12.5724 77.7985 12.3584 78.3534 12.1822Z" fill="#0D0B0A"/>
<path d="M72.0208 12.2048C73.6415 12.1712 74.9887 13.4473 75.0423 15.068C75.0959 16.6882 73.8368 18.0501 72.2171 18.1237C71.1517 18.1724 70.142 17.6441 69.5745 16.7409C69.0076 15.8374 68.9695 14.699 69.4759 13.7604C69.982 12.8213 70.9546 12.227 72.0208 12.2048ZM71.8216 13.4928C71.3861 13.6862 71.1493 13.9081 70.9808 14.363C70.7791 14.907 70.8116 15.6669 71.0696 16.1862C71.209 16.4658 71.4253 16.6933 71.7259 16.7936C71.9318 16.8627 72.1245 16.8735 72.3353 16.8239C72.7527 16.649 73.0027 16.4264 73.1741 15.9987C73.3888 15.4625 73.3867 14.7459 73.1399 14.2204C72.9855 13.8916 72.7104 13.6205 72.3577 13.5163C72.1853 13.4652 71.9983 13.4768 71.8216 13.4928Z" fill="#0D0B0A"/>
<path d="M39.2044 12.2135C40.8357 12.1398 42.2181 13.401 42.2943 15.0318C42.3708 16.6632 41.1117 18.048 39.4808 18.1266C37.8465 18.205 36.4586 16.9429 36.3822 15.3082C36.3059 13.6739 37.5699 12.2875 39.2044 12.2135ZM39.6654 13.5318C39.4764 13.4672 39.282 13.468 39.0863 13.4928C38.6495 13.7086 38.3996 13.9343 38.2328 14.4117C38.0442 14.9524 38.0721 15.7245 38.3441 16.232C38.4925 16.509 38.717 16.7117 39.0199 16.8043C39.2059 16.8613 39.4167 16.8662 39.6058 16.8209C40.0221 16.648 40.2665 16.4238 40.4339 15.9967C40.6463 15.455 40.6288 14.7404 40.3832 14.2115C40.2389 13.9008 39.9935 13.6443 39.6654 13.5318Z" fill="#0D0B0A"/>
<path d="M65.3875 12.2457C66.4381 12.0759 67.498 12.4839 68.1648 13.3131C68.8312 14.1426 69.0012 15.2661 68.6092 16.2555C68.2165 17.2444 67.323 17.9472 66.2693 18.0943C64.6642 18.3189 63.177 17.2087 62.9353 15.606C62.6934 14.0035 63.7878 12.5046 65.3875 12.2457ZM65.6287 13.4898C65.1903 13.6764 64.9379 13.8884 64.7605 14.3424C64.5526 14.8748 64.5731 15.6122 64.8191 16.1295C64.9677 16.4415 65.2205 16.6981 65.5545 16.8043C65.7216 16.8578 65.9114 16.857 66.0838 16.8355C66.521 16.6509 66.7757 16.4442 66.9568 15.9898C67.1672 15.4618 67.1637 14.7332 66.9187 14.2174C66.7731 13.911 66.5254 13.6526 66.201 13.5377C66.018 13.473 65.82 13.4738 65.6287 13.4898Z" fill="#0D0B0A"/>
<path d="M50.6029 12.1848C50.9731 12.1409 51.33 12.1482 51.6947 12.2327C52.2486 12.3611 52.713 12.6831 52.9955 13.18C53.1465 13.4459 53.2339 13.7383 53.2758 14.0403C53.3405 14.5073 53.3771 17.4594 53.2709 17.8655C53.1818 17.9793 53.0923 18.0204 52.9535 18.0501C52.7168 18.1003 52.1977 18.1307 52.0063 17.9534C51.8392 17.799 51.8734 17.4759 51.8715 17.2679C51.5939 17.678 51.3145 18.0088 50.81 18.135C50.2463 18.2753 49.7234 18.1105 49.2377 17.8304C49.031 17.6397 48.8737 17.4445 48.7846 17.1741C48.6346 16.7178 48.6828 16.1023 48.9164 15.6819C49.483 14.6623 50.8181 14.7232 51.7943 14.4358L51.8549 14.4173C51.8155 14.2953 51.7775 14.1707 51.727 14.053C51.1746 12.7794 49.7973 14.1706 49.1313 13.8206C48.9968 13.75 48.8997 13.6069 48.8656 13.4612C48.82 13.2675 48.8723 13.1424 48.9779 12.9817C49.3355 12.4362 50.0058 12.2987 50.6029 12.1848ZM51.7895 15.5882C51.3836 15.6997 50.6223 15.8225 50.3803 16.1907C50.3016 16.311 50.295 16.4685 50.3461 16.6009C50.3822 16.6942 50.4528 16.776 50.515 16.8528C50.9345 16.8811 51.1974 16.8502 51.518 16.5589C51.7123 16.3816 51.8905 16.0968 51.8813 15.8225C51.8788 15.7544 51.8597 15.6852 51.8441 15.6194L51.7895 15.5882Z" fill="#0D0B0A"/>
<path d="M34.0486 13.2812C34.1939 12.8194 35.3251 10.6097 35.6855 10.4022C35.8727 10.2944 36.8721 10.278 37.0728 10.3698C37.2016 10.4288 37.2155 10.4636 37.2739 10.5839C37.171 11.156 35.9069 13.0761 35.533 13.7021L34.876 14.7943C34.8786 15.4509 34.9941 17.4551 34.7652 17.9305C34.6848 17.9919 34.628 18.026 34.5275 18.0494C34.2192 18.1215 33.6054 18.1 33.3335 17.929C33.123 17.6519 33.2331 15.3511 33.2335 14.842C32.8977 14.3052 30.7305 10.8449 30.7877 10.5144C30.8593 10.4114 30.9055 10.3856 31.0215 10.34C31.387 10.3292 32.1303 10.2323 32.4328 10.4159C32.8252 10.6542 33.9027 12.795 34.0486 13.2812Z" fill="#0D0B0A"/>
<path d="M60.8861 10.339C61.2695 10.3291 61.8969 10.2332 62.2277 10.4313C62.3207 11.0629 62.2842 11.7313 62.2857 12.3683L62.2896 15.3184C62.2896 16.0886 62.3743 17.0156 62.2749 17.7717C62.2555 17.9222 62.1624 17.9714 62.0533 18.0576C61.6538 18.0708 61.0396 18.1697 60.7107 17.91C60.6333 17.6148 60.5846 10.8047 60.6591 10.5357C60.6946 10.4083 60.7784 10.3937 60.8861 10.339Z" fill="#0D0B0A"/>
<path d="M15.4292 20.9844C15.9581 21.1725 16.4903 21.323 17.0452 21.4131C18.001 21.568 19.1115 21.5227 19.9703 22.0206C20.6045 22.3884 21.2539 23.2496 21.4332 23.9638C21.466 24.0948 21.4565 24.1056 21.3894 24.2142C20.7256 24.4534 20.081 24.3964 19.4205 24.1801C17.8296 23.6598 16.2079 22.5004 15.4292 20.9844Z" fill="#0D0B0A"/>
<path d="M15.1299 20.9883C15.1635 20.9854 15.1957 21.0029 15.2281 21.0122C15.2265 21.0273 15.2268 21.0429 15.2232 21.058C15.1415 21.3965 13.8317 22.7771 13.5293 23.0163C12.4842 23.8415 10.9325 24.4967 9.58431 24.3355C9.54826 24.3277 9.49818 24.3179 9.46535 24.3028C9.39277 24.2692 9.34678 24.2424 9.32764 24.164C9.27653 23.9531 9.39642 23.7085 9.49229 23.5253C9.80114 22.9349 10.2848 22.2422 10.8907 21.9231C11.6375 21.5305 12.7403 21.532 13.5703 21.3843C14.102 21.2898 14.6144 21.1456 15.1299 20.9883Z" fill="#0D0B0A"/>
</g>
<defs>
<clipPath id="clip0_11202_177">
<rect width="83.147" height="23.5097" fill="white" transform="translate(0.853027 0.859894)"/>
</clipPath>
</defs>
</svg>
