<svg xmlns="http://www.w3.org/2000/svg" aria-hidden="true" style="position:absolute;width:0;height:0;overflow:hidden">
  <defs>
    <symbol id="icon-facebook" viewBox="0 0 31 32">
      <path d="M28.16 16.388c0-7.112-5.731-12.878-12.8-12.878S2.56 9.276 2.56 16.388c0 6.428 4.681 11.756 10.8 12.722v-8.999h-3.25v-3.723h3.25v-2.837c0-3.228 1.911-5.01 4.835-5.01 1.401 0 2.865.252 2.865.252v3.169h-1.614c-1.59 0-2.086.993-2.086 2.011v2.416h3.55l-.567 3.723H17.36v8.999c6.119-.966 10.8-6.294 10.8-12.722z"/>
    </symbol>
    <symbol id="icon-instagram" viewBox="0 0 31 32">
      <path d="M20.48 4.79H10.24a6.4 6.4 0 0 0-6.4 6.4v10.24a6.4 6.4 0 0 0 6.4 6.4h10.24a6.4 6.4 0 0 0 6.4-6.4V11.19a6.4 6.4 0 0 0-6.4-6.4zm4.16 16.64a4.172 4.172 0 0 1-4.16 4.16H10.24a4.172 4.172 0 0 1-4.16-4.16V11.19a4.172 4.172 0 0 1 4.16-4.16h10.24a4.172 4.172 0 0 1 4.16 4.16v10.24zm-3.2-9.92a1.28 1.28 0 1 1 0-2.56 1.28 1.28 0 0 1 0 2.56zm-6.08-.96a5.749 5.749 0 0 1 5.76 5.76 5.76 5.76 0 1 1-5.76-5.76zm-3.52 5.76a3.52 3.52 0 1 0 7.04 0 3.52 3.52 0 0 0-7.04 0z"/>
    </symbol>
    <symbol id="icon-linkedin" viewBox="0 0 31 32">
      <path d="M5.76 4.79h19.2c1.06 0 1.92.86 1.92 1.92v19.2c0 1.06-.86 1.92-1.92 1.92H5.76a1.92 1.92 0 0 1-1.92-1.92V6.71c0-1.06.86-1.92 1.92-1.92zm5.147 5.124c.007-1.073-.81-1.899-1.937-1.924a1.911 1.911 0 0 0-1.971 1.926c-.005 1.15.887 1.966 1.912 1.971 1.087.005 2.003-.749 1.996-1.973zm4.811 3.531h-3.227v10.957H15.9v-.256l-.001-1.459c-.001-1.298-.002-2.597.004-3.894.002-.315.016-.643.097-.943.304-1.123 1.314-1.849 2.441-1.67.724.113 1.202.533 1.404 1.215.124.427.18.886.185 1.33.015 1.341.013 2.682.011 4.023l-.002 1.42v.232h3.42v-.263l-.001-1.735c-.001-1.446-.001-2.892.002-4.338a7.692 7.692 0 0 0-.229-1.93c-.239-.94-.734-1.717-1.539-2.279-.571-.4-1.197-.657-1.897-.686l-.241-.012c-.358-.019-.722-.039-1.064.03-.979.196-1.84.644-2.489 1.435-.076.091-.149.183-.26.32l-.025.031v-1.528zm-8.446 10.96h3.393V13.452H7.272v10.953z"/>
    </symbol>
    <symbol id="icon-youtube" viewBox="0 0 31 32">
      <path d="M27.639 9.86a3.199 3.199 0 0 0-2.255-2.261C23.38 7.049 15.36 7.04 15.36 7.04s-8.018-.009-10.024.517a3.272 3.272 0 0 0-2.261 2.275c-.529 2.004-.534 6.162-.534 6.162s-.005 4.178.52 6.162a3.204 3.204 0 0 0 2.257 2.259c2.025.55 10.022.559 10.022.559s8.019.009 10.024-.516a3.221 3.221 0 0 0 2.262-2.257c.53-2.003.534-6.159.534-6.159s.026-4.179-.521-6.184zm-14.844 9.986.006-7.68 6.665 3.846-6.671 3.834z"/>
    </symbol>
    <symbol id="icon-logo" viewBox="0 0 112 32">
      <path d="M19.697.48c.498.247 1.057.957 1.433 1.377 3.223 3.6 4.913 8.185 4.614 13.011-.289 4.671-2.596 8.818-6.058 11.883-.656-.448-1.255-1.086-1.78-1.679-2.941-3.326-4.553-7.999-4.272-12.433.29-4.571 2.626-9.145 6.063-12.159z"/>
      <path d="m33.411 7.017.029.049c.183.373.236.966.283 1.381.242 2.156.042 4.317-.716 6.358-1.894 5.099-6.272 8.853-11.113 11.078-.057-.001-.019.004-.106-.047.296-.484.708-.917 1.05-1.371a19.45 19.45 0 0 0 1.416-2.228c1.483-2.729 2.192-5.729 2.19-8.824-.001-.879-.021-1.757-.275-2.605.454-.504 1.01-.928 1.55-1.337 1.74-1.317 3.493-2.233 5.693-2.453zM5.92 7.039c.261.01.525.044.783.083 1.989.303 3.728 1.361 5.282 2.587.434.342.908.699 1.234 1.148-.826 4.243.27 8.693 2.464 12.362.35.583.729 1.149 1.134 1.696.193.26.424.497.597.77l-.061.08c-3.618-1.547-7.007-4.285-9.187-7.557-2.287-3.433-3.044-7.132-2.246-11.17z"/>
      <path d="M36.95 16.508c.577-.069 1.87-.142 2.353.166.024.073.032.08.034.168.01.338-.211.845-.326 1.161a13.493 13.493 0 0 1-3.815 5.649c-3.395 3.001-7.795 4.078-12.238 3.793-.839-.088-1.705-.146-2.511-.403 3.723-1.145 7.265-3.485 9.831-6.406.631-.718 1.093-1.552 1.707-2.275 1.165-1.371 3.277-1.734 4.966-1.853zM1.382 16.621c1.735-.205 4.089.081 5.518 1.161.85.642 1.362 1.835 2.064 2.647a21.958 21.958 0 0 0 8.039 5.861c.659.282 1.337.576 2.033.748l-1.392.233c-4.054.583-8.254-.141-11.723-2.396-2.362-1.536-4.025-3.643-5.003-6.27C.774 18.22.56 17.802.486 17.4c-.043-.234-.005-.389.132-.588.218-.16.501-.159.763-.19zM72.176 13.119c1.351-.011 2.825-.132 4.159.063.858.125 1.73.432 2.253 1.168.384.542.509 1.303.391 1.951-.146.792-.648 1.25-1.284 1.677.153.064.303.134.449.212.562.304.959.831 1.124 1.445.225.84.044 1.704-.374 2.449a2.21 2.21 0 0 1-.329.387c-1.282 1.216-4.093.981-5.75.965-.319-.003-.739.026-.977-.216a.787.787 0 0 1-.089-.339c-.109-1.779-.01-3.626-.01-5.411-.001-1.265-.127-2.911.038-4.133.127-.159.208-.158.4-.217zm4.526 6.258c-.716-.467-1.921-.332-2.751-.331l.003 2.306c.92.006 1.996.149 2.813-.345.192-.283.385-.705.329-1.057-.04-.256-.18-.434-.393-.573zm-.341-4.1c-.683-.411-1.641-.306-2.409-.302v2.213c.824.007 1.806.128 2.526-.337.193-.277.38-.675.307-1.025-.053-.257-.206-.418-.425-.549zM59.58 15.516c.206-.017.413-.006.616.033.618.124.919.579 1.25 1.064.019-.169.032-.353.072-.518a.521.521 0 0 1 .29-.362c.25-.133.786-.141 1.047-.044.191.071.403.237.469.436.194.59.119 6.371.007 7.161a4.16 4.16 0 0 1-.499 1.491c-.423.737-1.145 1.217-1.954 1.436-1.142.309-2.441.21-3.46-.404-.455-.273-.668-.626-.788-1.133.038-.183.084-.362.241-.481.51-.386 1.613.262 2.18.367.488.09 1.014.041 1.419-.266.668-.504.779-1.436.893-2.204-.447.478-.873.863-1.533 1.025a2.693 2.693 0 0 1-2.113-.353c-.81-.537-1.261-1.457-1.427-2.392-.202-1.138-.026-2.499.664-3.452.658-.908 1.563-1.242 2.626-1.405zm.121 1.742c-.532.201-.827.447-1.055.978-.281.652-.289 1.597-.014 2.251.145.345.436.709.802.832.242.081.534.046.783.029.439-.157.688-.341.896-.767.32-.654.33-1.576.086-2.259-.142-.397-.422-.787-.819-.958a1.568 1.568 0 0 0-.678-.105zM103.805 15.577c.523-.069 1.038-.046 1.532.159.682.282 1.036.797 1.306 1.453.138-.347.291-.696.536-.983.387-.456.894-.637 1.482-.659.676-.026 1.369.129 1.865.615.326.32.526.748.635 1.186.29 1.168.128 3.677.132 4.997.001.202.026.84-.132.96-.269.203-1.221.158-1.556.11-.195-.027-.316-.133-.397-.31-.124-.273-.058-.76-.054-1.062.013-.979.254-3.684-.325-4.398a.751.751 0 0 0-.534-.281c-.312-.022-.709.086-.935.308-.803.787-.537 3.583-.53 4.683.002.222.01.465-.017.685-.012.097-.046.21-.135.261-.342.196-1.175.167-1.552.079-.197-.046-.281-.112-.351-.303-.116-.316-.051-.785-.045-1.119.018-.981.25-3.42-.249-4.155a.93.93 0 0 0-.635-.398c-.298-.049-.609-.009-.851.182-.976.77-.709 3.471-.705 4.586.001.268.056.652-.006.903-.025.105-.056.168-.146.227-.314.206-1.165.162-1.54.088a.445.445 0 0 1-.327-.271c-.096-.203-.125-6.071-.089-6.652.01-.162.044-.335.118-.48a.742.742 0 0 1 .451-.372c.464-.15 1.044.016 1.454.244.099.367.028.847.012 1.229.048-.097.097-.195.147-.291.362-.7.703-.986 1.443-1.221zM95.361 15.606c2.161-.045 3.957 1.657 4.029 3.818s-1.607 3.976-3.767 4.074a3.947 3.947 0 1 1-.261-7.892zm-.266 1.718c-.581.258-.896.554-1.121 1.16-.269.725-.226 1.739.118 2.431.186.373.474.676.875.81.275.092.531.107.813.04.557-.233.89-.53 1.118-1.1.286-.715.283-1.67-.046-2.371-.206-.438-.573-.8-1.043-.939-.23-.068-.479-.053-.715-.031zM51.606 15.619a3.946 3.946 0 1 1 .354 7.885 3.946 3.946 0 0 1-.353-7.885zm.615 1.758c-.252-.086-.511-.085-.772-.052-.582.288-.916.589-1.138 1.225-.251.721-.214 1.75.148 2.427.198.369.497.64.901.763.248.076.529.083.781.022.555-.231.881-.529 1.104-1.099.283-.722.26-1.675-.068-2.38-.192-.414-.52-.756-.957-.906z"/>
      <path d="M86.517 15.661a3.944 3.944 0 1 1 1.256 7.786 3.944 3.944 0 0 1-1.255-7.786zm.321 1.659c-.585.249-.921.531-1.158 1.137-.277.71-.25 1.693.078 2.383.198.416.535.758.981.9.223.071.476.07.706.042.583-.246.923-.522 1.164-1.128.281-.704.276-1.676-.051-2.363-.194-.408-.524-.753-.957-.906-.244-.086-.508-.085-.763-.064zM66.804 15.581a4.145 4.145 0 0 1 1.456.064c.739.171 1.358.601 1.734 1.263.201.355.318.744.374 1.147.086.623.135 4.559-.007 5.1-.119.152-.238.206-.423.246-.316.067-1.008.108-1.263-.129-.223-.206-.177-.637-.18-.914-.37.547-.743.988-1.415 1.156-.752.187-1.449-.033-2.096-.406-.276-.254-.485-.515-.604-.875-.2-.608-.136-1.429.176-1.989.755-1.359 2.536-1.278 3.837-1.661l.081-.025c-.053-.163-.103-.329-.171-.486-.737-1.698-2.573.157-3.461-.31a.739.739 0 0 1-.354-.479c-.061-.258.009-.425.15-.639.477-.727 1.371-.911 2.167-1.063zm1.582 4.538c-.541.149-1.556.312-1.879.803a.61.61 0 0 0-.046.547c.048.125.142.233.225.336.559.038.91-.004 1.337-.392.259-.236.497-.616.484-.982-.003-.091-.029-.183-.05-.271l-.073-.042zM44.731 17.043c.194-.616 1.702-3.562 2.183-3.839.25-.144 1.582-.166 1.85-.043.172.079.19.125.268.285-.137.763-1.823 3.323-2.321 4.158l-.876 1.456c.003.876.157 3.548-.148 4.182a.749.749 0 0 1-.317.159c-.411.096-1.229.068-1.592-.16-.281-.37-.134-3.437-.133-4.116-.448-.716-3.337-5.329-3.261-5.77.095-.137.157-.172.312-.232.487-.014 1.478-.144 1.882.101.523.318 1.96 3.172 2.154 3.82zM80.515 13.119c.511-.013 1.348-.141 1.789.123.124.842.075 1.733.077 2.583l.005 3.933c0 1.027.113 2.263-.02 3.271-.026.201-.15.266-.295.381-.533.018-1.352.149-1.79-.197-.103-.394-.168-9.474-.069-9.832.047-.17.159-.189.303-.262zM19.906 27.314c.705.251 1.415.451 2.155.571 1.274.207 2.755.146 3.9.81.846.49 1.711 1.639 1.951 2.591.044.175.031.189-.058.334-.885.319-1.745.243-2.625-.045-2.121-.694-4.283-2.24-5.322-4.261zM19.507 27.318c.045-.004.088.019.131.032-.002.02-.002.041-.007.061-.109.451-1.855 2.292-2.259 2.611-1.393 1.1-3.462 1.974-5.26 1.759-.048-.01-.115-.023-.159-.044-.097-.045-.158-.081-.184-.185-.068-.281.092-.607.22-.851.412-.787 1.057-1.711 1.865-2.136.996-.523 2.466-.521 3.573-.718.709-.126 1.392-.318 2.079-.528z"/>
    </symbol>
  </defs>
</svg>