<svg xmlns="http://www.w3.org/2000/svg" aria-hidden="true" style="position:absolute;width:0;height:0;overflow:hidden">
  <defs>
    <symbol id="icon-facebook" viewBox="0 0 32 32">
      <path d="M31.238 15.701C31.238 7.234 24.416.37 16 .37S.762 7.234.762 15.701c0 7.652 5.572 13.995 12.857 15.145V20.133H9.75v-4.432h3.869v-3.378c0-3.842 2.275-5.965 5.756-5.965 1.667 0 3.411.299 3.411.299v3.773h-1.921c-1.893 0-2.483 1.182-2.483 2.394V15.7h4.226l-.675 4.432h-3.551v10.713c7.285-1.15 12.857-7.493 12.857-15.145z"/>
    </symbol>
    <symbol id="icon-instagram" viewBox="0 0 32 32">
      <path d="M8.266.465a10.14 10.14 0 0 0-1.833.441l.071-.021c-2.794.972-4.819 3.274-5.502 6.253l-.118.515-.019 7.628c-.012 5.297 0 7.764.04 8.079.431 3.355 2.907 6.205 6.139 7.065 1.128.3.945.295 8.948.295 8.099 0 7.869.008 9.049-.323 2.462-.692 4.588-2.614 5.517-4.989.236-.59.422-1.281.528-1.997l.006-.051c.04-.315.052-2.782.04-8.079l-.019-7.628-.118-.515c-.771-3.365-3.197-5.79-6.563-6.562l-.514-.12-7.734-.007C11.93.446 8.366.452 8.263.464zM23.5 3.417c2.277.317 4.16 2.112 4.613 4.396.061.308.074 1.688.074 7.84v7.468l-.147.529c-.544 1.974-1.994 3.419-3.981 3.968l-.512.143H8.453l-.512-.143c-1.987-.549-3.437-1.994-3.981-3.968l-.147-.529v-7.495c0-5.991.015-7.557.071-7.813.382-1.747 1.418-3.099 2.971-3.88.441-.222 1.15-.45 1.598-.514.492-.071 14.543-.071 15.047-.002zm.126 2.522c-.898.194-1.484 1.127-1.258 2.006.365 1.427 2.189 1.768 3.018.564a1.688 1.688 0 0 0-.543-2.394l-.008-.004c-.179-.104-.753-.259-.886-.239l-.323.067zm-8.64 2.117a8.063 8.063 0 0 0-2.785.961l.04-.021c-1.922 1.113-3.217 2.915-3.69 5.139-.138.645-.136 2.242.003 2.88.345 1.585.99 2.777 2.109 3.896 1.112 1.112 2.275 1.745 3.843 2.092.729.162 2.259.162 2.988 0 1.568-.347 2.732-.98 3.843-2.092 1.098-1.098 1.73-2.245 2.083-3.784.15-.652.189-1.945.081-2.644-.495-3.21-2.808-5.652-6.008-6.348-.473-.101-1.994-.15-2.508-.077zm2.257 3.061a4.68 4.68 0 0 1 3.235 3.277l.007.033c.162.603.162 1.689 0 2.291-.664 2.483-3.181 3.968-5.645 3.33a4.756 4.756 0 0 1-3.317-3.293l-.008-.033c-.162-.606-.162-1.689 0-2.294a4.812 4.812 0 0 1 1.89-2.688 5.184 5.184 0 0 1 2.006-.769l.03-.004c.408-.061 1.341.019 1.802.152z"/>
    </symbol>
    <symbol id="icon-linkedin" viewBox="0 0 32 32">
      <path d="M2.72.5c-.877.246-1.613.999-1.811 1.853-.035.153-.054 4.659-.056 13.224 0 14.25-.024 13.184.305 13.832.173.344.667.834 1.017 1.011.628.32-.295.3 13.824.3s13.196.02 13.824-.3c.35-.177.844-.667 1.017-1.011.328-.648.305.418.305-13.832-.002-8.566-.02-13.071-.056-13.224-.2-.871-1.002-1.669-1.88-1.871C28.844.398 3.021.416 2.718.501zm5.521 4.214c.756.211 1.305.643 1.625 1.287.273.547.335 1.171.184 1.837-.429 1.888-2.914 2.555-4.312 1.157-.593-.595-.864-1.58-.667-2.435a2.739 2.739 0 0 1 1.148-1.578l.011-.006c.537-.317 1.4-.428 2.011-.261zm14.452 6.857a5.384 5.384 0 0 1 2.821 1.935l.01.014c.394.549.721 1.32.894 2.107.214.97.222 1.164.222 5.947v4.64l-4.455.029-.002-2.841c-.005-3.815-.062-5.528-.207-6.107-.281-1.135-.911-1.738-1.976-1.893-1.442-.211-2.739.717-3.185 2.28-.083.286-.094.741-.111 4.44l-.019 4.121-4.446-.029-.015-7.213-.013-7.213h4.266l.013.985.015.984.374-.435c.48-.563.941-.931 1.573-1.26.531-.278.97-.443 1.514-.569.502-.116 2.163-.067 2.725.079zM9.814 19.013v7.227H5.386V11.786h4.428v7.227z"/>
    </symbol>
  </defs>
</svg>